<svg width="20" height="13" viewBox="0 0 20 13" fill="none" xmlns="http://www.w3.org/2000/svg">
<path fill-rule="evenodd" clip-rule="evenodd" d="M6.36447 11.1818H14.5455C15.0475 11.1818 15.4545 11.5888 15.4545 12.0909C15.4545 12.593 14.9906 13 14.4885 13C14.4885 13 6.37294 12.9997 6.36447 12.9997C6.33365 12.9997 6.30289 12.9992 6.2721 12.9982C6.22143 12.9965 6.15131 12.9932 6.06449 12.987C5.89118 12.9747 5.64952 12.9503 5.36191 12.9024C4.79101 12.8073 4.0159 12.6153 3.2298 12.2222C2.44014 11.8274 1.62283 11.2209 1.00495 10.294C0.383291 9.36155 0 8.15909 0 6.63636C0 5.09518 0.383291 3.91118 1.00495 2.97864C1.62283 2.05191 2.44014 1.44536 3.2298 1.05055C4.0159 0.657455 4.79101 0.465456 5.36191 0.370365C5.64952 0.322365 5.89118 0.298091 6.06449 0.285728C6.15131 0.279454 6.22143 0.276274 6.2721 0.274547C6.3026 0.273546 6.3331 0.273001 6.36362 0.272728C8.88082 0.259637 15.1983 0.272455 15.4555 0.272728C15.4789 0.272728 15.5023 0.273363 15.5256 0.274091C15.563 0.275363 15.6136 0.277728 15.6755 0.282183C15.7992 0.291001 15.9698 0.308182 16.1722 0.341909C16.5726 0.408636 17.1205 0.543819 17.6793 0.823274C18.2416 1.10445 18.8317 1.54055 19.2791 2.21164C19.7304 2.88845 20 3.75 20 4.81818C20 5.88636 19.7304 6.74791 19.2791 7.42473C18.8317 8.09582 18.2416 8.53192 17.6793 8.81312C17.1205 9.09253 16.5726 9.22771 16.1722 9.29445C15.9698 9.32818 15.7992 9.34539 15.6755 9.35423C15.6136 9.35865 15.563 9.361 15.5256 9.36225C15.5026 9.36301 15.4795 9.36356 15.4565 9.36364C12.7313 9.36708 10.0061 9.36364 7.28093 9.36364C7.23385 9.36272 7.17683 9.36113 7.12984 9.35777C7.05595 9.3525 6.95634 9.34238 6.83918 9.32285C6.60919 9.28453 6.28863 9.20616 5.95707 9.04038C5.62195 8.87283 5.25919 8.60721 4.98223 8.19173C4.70147 7.77064 4.54545 7.25 4.54545 6.63636C4.54545 6.02273 4.70147 5.50209 4.98223 5.081C5.25919 4.66555 5.62195 4.39991 5.95707 4.23236C6.28863 4.06655 6.60919 3.98818 6.83918 3.94991C6.95634 3.93036 7.05595 3.92027 7.12984 3.91491C7.19204 3.91055 7.23053 3.90918 7.27085 3.90909L14.5455 3.90909C15.0475 3.90909 15.4545 4.31609 15.4545 4.81818C15.4545 5.32027 15.0475 5.72727 14.5455 5.72727H7.28093C7.26857 5.72773 7.21349 5.73073 7.13809 5.74327C7.02717 5.76182 6.89319 5.79709 6.7702 5.85855C6.65077 5.91827 6.55899 5.99355 6.49505 6.08955C6.43489 6.17973 6.36364 6.34091 6.36364 6.63636C6.36364 6.93182 6.43489 7.093 6.49505 7.18318C6.55899 7.27918 6.65077 7.35445 6.7702 7.41418C6.89319 7.47564 7.02717 7.51091 7.13809 7.52945C7.21349 7.542 7.26857 7.545 7.28093 7.54545H15.4506C15.4825 7.54464 15.5143 7.54291 15.546 7.54064C15.6213 7.53527 15.7347 7.52409 15.8733 7.501C16.1546 7.45409 16.5159 7.362 16.8662 7.18691C17.2129 7.01355 17.5319 6.76782 17.7664 6.41618C17.9969 6.07027 18.1818 5.56818 18.1818 4.81818C18.1818 4.06818 17.9969 3.56609 17.7664 3.22018C17.5319 2.86855 17.2129 2.62282 16.8662 2.44945C16.5159 2.27436 16.1546 2.18227 15.8733 2.13536C15.7347 2.11227 15.6213 2.10109 15.546 2.09573C15.5143 2.09346 15.4825 2.09173 15.4505 2.09091L6.36265 2.091C6.3468 2.09118 6.2875 2.09255 6.19403 2.09927C6.06905 2.10818 5.88457 2.12645 5.66082 2.16373C5.20899 2.23909 4.62046 2.388 4.04293 2.67673C3.46895 2.96373 2.92263 3.37991 2.51777 3.98718C2.11671 4.58882 1.81818 5.43182 1.81818 6.63636C1.81818 7.84091 2.11671 8.68391 2.51777 9.2855C2.92263 9.89279 3.46895 10.309 4.04293 10.596C4.62046 10.8847 5.20899 11.0337 5.66082 11.109C5.88457 11.1463 6.06905 11.1645 6.19403 11.1735C6.27897 11.1795 6.32464 11.1808 6.36447 11.1818Z" fill="#D3D3D3"/>
</svg>
