<svg width="20" height="20" viewBox="0 0 20 20" fill="none" xmlns="http://www.w3.org/2000/svg">
<path d="M10.1946 0C4.87966 0 0.583496 4.47 0.583496 10C0.583496 15.53 4.87966 20 10.1946 20C15.5096 20 19.8057 15.53 19.8057 10C19.8057 4.47 15.5096 0 10.1946 0ZM14.3274 14.3C13.9525 14.69 13.3471 14.69 12.9722 14.3L10.1946 11.41L7.417 14.3C7.04216 14.69 6.43666 14.69 6.06183 14.3C5.687 13.91 5.687 13.28 6.06183 12.89L8.83944 10L6.06183 7.11C5.687 6.72 5.687 6.09 6.06183 5.7C6.43666 5.31 7.04216 5.31 7.417 5.7L10.1946 8.59L12.9722 5.7C13.3471 5.31 13.9525 5.31 14.3274 5.7C14.7022 6.09 14.7022 6.72 14.3274 7.11L11.5498 10L14.3274 12.89C14.6926 13.27 14.6926 13.91 14.3274 14.3Z" fill="#DEDEDE"/>
</svg>
