<svg width="28" height="27" viewBox="0 0 28 27" fill="none" xmlns="http://www.w3.org/2000/svg">
<path d="M20.3396 12.9944C24.1365 12.9944 27.2146 16.0724 27.2146 19.8694C27.2146 23.6663 24.1365 26.7444 20.3396 26.7444C16.5426 26.7444 13.4646 23.6663 13.4646 19.8694C13.4646 16.0724 16.5426 12.9944 20.3396 12.9944ZM20.3396 15.4934L20.2272 15.5035C19.9721 15.5498 19.7709 15.751 19.7246 16.0061L19.7146 16.1184L19.7141 19.2434L16.5866 19.2444L16.4743 19.2545C16.2192 19.3008 16.018 19.5019 15.9717 19.757L15.9616 19.8694L15.9717 19.9817C16.018 20.2368 16.2192 20.438 16.4743 20.4843L16.5866 20.4944L19.7154 20.4934L19.7159 23.6237L19.726 23.7361C19.7723 23.9912 19.9735 24.1924 20.2286 24.2387L20.3409 24.2487L20.4533 24.2387C20.7084 24.1924 20.9096 23.9912 20.9559 23.7361L20.9659 23.6237L20.9654 20.4934L24.0953 20.4944L24.2076 20.4843C24.4627 20.438 24.6639 20.2368 24.7102 19.9817L24.7203 19.8694L24.7102 19.757C24.6639 19.5019 24.4627 19.3008 24.2076 19.2545L24.0953 19.2444L20.9641 19.2434L20.9646 16.1184L20.9545 16.0061C20.9082 15.751 20.707 15.5498 20.4519 15.5035L20.3396 15.4934ZM13.492 15.4941C13.1211 16.0734 12.8217 16.7029 12.6062 17.3701L10.0271 17.3694C9.85446 17.3694 9.71455 17.5093 9.71455 17.6819V18.9319C9.71455 20.1533 10.4795 20.8628 12.3009 21.068C12.4014 21.7379 12.5822 22.3813 12.8344 22.9876C9.64212 22.8161 7.83955 21.4608 7.83955 18.9319V17.6819C7.83955 16.4738 8.81893 15.4944 10.0271 15.4944L13.492 15.4941ZM8.62205 9.24449C8.51924 9.64398 8.46455 10.0628 8.46455 10.4944C8.46455 10.7058 8.47767 10.9141 8.50314 11.1186L3.15205 11.1194C2.97947 11.1194 2.83955 11.2593 2.83955 11.4319V12.6819C2.83955 14.1521 3.94789 14.8807 6.67304 14.8807C7.25042 14.8807 7.75175 14.8487 8.18249 14.7839C7.47602 15.2315 6.94638 15.9306 6.71608 16.7546L6.67304 16.7557C3.03688 16.7557 0.964554 15.3934 0.964554 12.6819V11.4319C0.964554 10.2842 1.84844 9.34289 2.97264 9.25164L3.15205 9.24438L8.62205 9.24449ZM13.4646 6.74438C15.5356 6.74438 17.2146 8.42332 17.2146 10.4944C17.2146 12.5655 15.5356 14.2444 13.4646 14.2444C11.3935 14.2444 9.71455 12.5655 9.71455 10.4944C9.71455 8.42332 11.3935 6.74438 13.4646 6.74438ZM23.7771 9.24438C24.9852 9.24438 25.9646 10.2238 25.9646 11.4319L25.9632 12.6345C25.9878 13.0955 25.9505 13.5182 25.8539 13.9024C25.3255 13.4137 24.7334 12.9954 24.0909 12.6603L24.0896 11.4319C24.0896 11.2593 23.9496 11.1194 23.7771 11.1194L18.426 11.1184C18.4514 10.914 18.4646 10.7057 18.4646 10.4944C18.4646 10.0628 18.4099 9.64398 18.3071 9.24449L23.7771 9.24438ZM13.4646 8.61938C12.429 8.61938 11.5896 9.45885 11.5896 10.4944C11.5896 11.5299 12.429 12.3694 13.4646 12.3694C14.5001 12.3694 15.3396 11.5299 15.3396 10.4944C15.3396 9.45885 14.5001 8.61938 13.4646 8.61938ZM6.58955 0.494385C8.66062 0.494385 10.3396 2.17332 10.3396 4.24438C10.3396 6.31545 8.66062 7.99438 6.58955 7.99438C4.51849 7.99438 2.83955 6.31545 2.83955 4.24438C2.83955 2.17332 4.51849 0.494385 6.58955 0.494385ZM20.3396 0.494385C22.4106 0.494385 24.0896 2.17332 24.0896 4.24438C24.0896 6.31545 22.4106 7.99438 20.3396 7.99438C18.2685 7.99438 16.5896 6.31545 16.5896 4.24438C16.5896 2.17332 18.2685 0.494385 20.3396 0.494385ZM6.58955 2.36938C5.55402 2.36938 4.71455 3.20885 4.71455 4.24438C4.71455 5.27992 5.55402 6.11938 6.58955 6.11938C7.62509 6.11938 8.46455 5.27992 8.46455 4.24438C8.46455 3.20885 7.62509 2.36938 6.58955 2.36938ZM20.3396 2.36938C19.304 2.36938 18.4646 3.20885 18.4646 4.24438C18.4646 5.27992 19.304 6.11938 20.3396 6.11938C21.3751 6.11938 22.2146 5.27992 22.2146 4.24438C22.2146 3.20885 21.3751 2.36938 20.3396 2.36938Z" fill="#DEDEDE"/>
</svg>
