<svg width="25" height="25" viewBox="0 0 25 25" fill="none" xmlns="http://www.w3.org/2000/svg">
<path d="M12.449 15.0396C15.8802 15.0396 18.8099 15.5836 18.8099 17.7604C18.8099 19.9362 15.899 20.5 12.449 20.5C9.01779 20.5 6.08803 19.956 6.08803 17.7802C6.08803 15.6034 8.99898 15.0396 12.449 15.0396ZM17.935 13.7289C19.2468 13.7046 20.657 13.8847 21.1782 14.0126C22.2822 14.2296 23.0084 14.6727 23.3092 15.3166C23.5635 15.8453 23.5635 16.4586 23.3092 16.9864C22.849 17.9851 21.3653 18.3058 20.7887 18.3886C20.6696 18.4066 20.5738 18.3031 20.5863 18.1833C20.8809 15.4157 18.5376 14.1035 17.9314 13.8018C17.9055 13.7883 17.9001 13.7676 17.9028 13.755C17.9046 13.746 17.9153 13.7316 17.935 13.7289ZM7.06554 13.7292C7.08524 13.7319 7.09509 13.7463 7.09688 13.7545C7.09956 13.768 7.09419 13.7878 7.06912 13.8022C6.46204 14.1039 4.11877 15.4161 4.41336 18.1827C4.42589 18.3034 4.33098 18.4061 4.21189 18.389C3.63525 18.3061 2.15157 17.9855 1.69133 16.9867C1.43614 16.4581 1.43614 15.8457 1.69133 15.317C1.99219 14.6731 2.71746 14.23 3.82149 14.012C4.34351 13.885 5.75288 13.7049 7.06554 13.7292ZM12.449 4.5C14.7851 4.5 16.6583 6.38227 16.6583 8.73285C16.6583 11.0825 14.7851 12.9666 12.449 12.9666C10.1129 12.9666 8.23968 11.0825 8.23968 8.73285C8.23968 6.38227 10.1129 4.5 12.449 4.5ZM18.1633 5.2059C20.4198 5.2059 22.1918 7.34123 21.5883 9.71974C21.1808 11.321 19.7061 12.3846 18.0631 12.3414C17.8983 12.3369 17.7362 12.3216 17.5795 12.2946C17.4658 12.2748 17.4085 12.146 17.473 12.0505C18.0998 11.1229 18.457 10.007 18.457 8.80922C18.457 7.55918 18.0666 6.3938 17.3888 5.43825C17.3673 5.40853 17.3512 5.3626 17.3727 5.32838C17.3906 5.30046 17.4237 5.28605 17.4551 5.27884C17.6834 5.23201 17.918 5.2059 18.1633 5.2059ZM6.83587 5.20581C7.08121 5.20581 7.3158 5.23192 7.54503 5.27875C7.57547 5.28596 7.6095 5.30127 7.6274 5.32829C7.648 5.36251 7.63278 5.40844 7.61129 5.43816C6.93347 6.39371 6.54307 7.55909 6.54307 8.80913C6.54307 10.0069 6.90034 11.1228 7.52712 12.0504C7.59159 12.1459 7.53428 12.2747 7.42057 12.2945C7.26297 12.3224 7.1018 12.3368 6.93705 12.3413C5.29398 12.3845 3.81926 11.3209 3.41185 9.71965C2.80745 7.34114 4.57945 5.20581 6.83587 5.20581Z" fill="white"/>
</svg>
