<svg width="27" height="22" viewBox="0 0 27 22" fill="none" xmlns="http://www.w3.org/2000/svg">
<path fill-rule="evenodd" clip-rule="evenodd" d="M9.81882 2.054C5.78864 2.054 2.52152 5.32111 2.52152 9.35129C2.52152 10.0136 2.60974 10.6552 2.77506 11.2651C3.10843 11.0174 3.47855 10.8004 3.88266 10.6257C3.53672 10.1554 3.33233 9.57451 3.33233 8.94589C3.33233 7.37859 4.60287 6.10805 6.17017 6.10805C7.73745 6.10805 9.00801 7.37859 9.00801 8.94589C9.00801 9.57451 8.80361 10.1555 8.45763 10.6257C8.8268 10.7852 9.16798 10.9802 9.47893 11.2021C9.48907 11.2093 9.49912 11.2168 9.50885 11.2245C9.83585 10.874 10.219 10.5532 10.6527 10.2798C9.89804 9.686 9.41342 8.76443 9.41342 7.72967C9.41342 5.93848 10.8654 4.48643 12.6567 4.48643C14.4478 4.48643 15.8999 5.93848 15.8999 7.72967C15.8999 8.38602 15.7049 8.99689 15.3697 9.50738C15.9966 9.64902 16.5657 9.88059 17.0701 10.1754C17.1005 9.90492 17.1161 9.62989 17.1161 9.35129C17.1161 5.32111 13.849 2.054 9.81882 2.054ZM8.59507 12.5599C8.57536 12.5482 8.55607 12.5357 8.53709 12.5221C7.92003 12.0819 7.12605 11.7837 6.17017 11.7837C5.00389 11.7837 4.07077 12.2289 3.40957 12.8431C4.64747 15.1104 7.05352 16.6486 9.81882 16.6486C12.9691 16.6486 15.6531 14.6524 16.675 11.8559C16.6609 11.8468 16.6471 11.8372 16.6335 11.8272C15.9555 11.3251 15.0521 10.9729 13.9463 10.9729C11.265 10.9729 9.81882 13.0235 9.81882 14.2162C9.81882 14.664 9.45582 15.027 9.00801 15.027C8.5602 15.027 8.19719 14.664 8.19719 14.2162C8.19719 13.6798 8.33496 13.1116 8.59507 12.5599ZM0.899902 9.35129C0.899902 4.42551 4.89304 0.432373 9.81882 0.432373C14.7446 0.432373 18.7377 4.42551 18.7377 9.35129C18.7377 10.4824 18.5272 11.5643 18.1432 12.5599C17.7387 13.6085 17.1419 14.5614 16.3959 15.3754C14.7654 17.1546 12.4224 18.2702 9.81882 18.2702C4.89304 18.2702 0.899902 14.2771 0.899902 9.35129ZM12.6567 6.10805C11.761 6.10805 11.035 6.83407 11.035 7.72967C11.035 8.62529 11.761 9.35129 12.6567 9.35129C13.5523 9.35129 14.2783 8.62529 14.2783 7.72967C14.2783 6.83407 13.5523 6.10805 12.6567 6.10805ZM4.95395 8.94589C4.95395 8.27421 5.49846 7.72967 6.17017 7.72967C6.84186 7.72967 7.38638 8.27421 7.38638 8.94589C7.38638 9.61756 6.84186 10.1621 6.17017 10.1621C5.49846 10.1621 4.95395 9.61756 4.95395 8.94589Z" fill="#DEDEDE"/>
<path d="M25.8008 19.7333C26.3712 18.9348 26.163 17.8222 25.3426 17.2839L18.1432 12.5599C17.7387 13.6085 17.1419 14.5614 16.3959 15.3754L23.4221 20.1575C24.1986 20.6859 25.2549 20.4975 25.8008 19.7333V19.7333Z" fill="#DEDEDE"/>
</svg>
