<svg width="22" height="22" viewBox="0 0 22 22" fill="none" xmlns="http://www.w3.org/2000/svg">
<path d="M21 11C21 16.5229 16.5229 21 11 21C5.47716 21 1 16.5229 1 11C1 5.47716 5.47716 1 11 1C16.5229 1 21 5.47716 21 11Z" stroke="#D3D3D3" stroke-width="2" stroke-linecap="round" stroke-linejoin="round"/>
<path d="M6.59612 11.2849C5.93462 11.0277 5.60388 10.899 5.50732 10.7137C5.42361 10.553 5.4235 10.3617 5.50701 10.2009C5.60336 10.0154 5.93395 9.88644 6.59514 9.62833L13.6927 6.85861C14.2895 6.62569 14.5879 6.50922 14.7787 6.57293C14.9442 6.62825 15.0742 6.75822 15.1296 6.92383C15.1932 7.11453 15.0768 7.41296 14.8439 8.00982L12.0741 15.1073C11.8161 15.7686 11.6871 16.0991 11.5016 16.1954C11.3409 16.279 11.1495 16.2789 10.9888 16.1951C10.8035 16.0986 10.6748 15.7679 10.4176 15.1063L9.48934 12.7194C9.43712 12.5851 9.41101 12.518 9.37068 12.4614C9.3349 12.4113 9.29112 12.3676 9.24101 12.3318C9.18445 12.2914 9.11734 12.2653 8.98301 12.2131L6.59612 11.2849Z" stroke="#D3D3D3" stroke-width="2" stroke-linecap="round" stroke-linejoin="round"/>
</svg>
