<svg width="16" height="18" viewBox="0 0 16 18" fill="none" xmlns="http://www.w3.org/2000/svg">
<path d="M13.7826 6.24745C13.9487 6.24745 14.0994 6.31995 14.2186 6.44245C14.3296 6.57328 14.3855 6.73578 14.3693 6.90744C14.3693 6.96411 13.9252 12.5807 13.6715 14.9449C13.5127 16.3957 12.5774 17.2765 11.1745 17.3007C10.0958 17.3248 9.04136 17.3332 8.00316 17.3332C6.90093 17.3332 5.82302 17.3248 4.77672 17.3007C3.42082 17.2682 2.48474 16.3715 2.33399 14.9449C2.07302 12.5724 1.63699 6.96411 1.62889 6.90744C1.62079 6.73578 1.6759 6.57328 1.78774 6.44245C1.89796 6.31995 2.05681 6.24745 2.22377 6.24745H13.7826ZM9.72061 0.666504C10.4573 0.666504 11.1154 1.18067 11.3059 1.91399L11.442 2.52232C11.5522 3.01815 11.9818 3.36898 12.4762 3.36898H14.9059C15.2301 3.36898 15.5 3.63814 15.5 3.98064V4.2973C15.5 4.63146 15.2301 4.90896 14.9059 4.90896H1.09488C0.769883 4.90896 0.5 4.63146 0.5 4.2973V3.98064C0.5 3.63814 0.769883 3.36898 1.09488 3.36898H3.52464C4.01821 3.36898 4.44775 3.01815 4.55879 2.52315L4.68603 1.95482C4.88378 1.18067 5.53458 0.666504 6.27939 0.666504H9.72061Z" fill="#DF494C"/>
</svg>
