<svg width="30" height="31" viewBox="0 0 30 31" fill="none" xmlns="http://www.w3.org/2000/svg">
<path fill-rule="evenodd" clip-rule="evenodd" d="M0 15.5C0 8.42893 -2.38419e-07 4.89339 2.1967 2.6967C4.39339 0.5 7.92893 0.5 15 0.5C22.071 0.5 25.6066 0.5 27.8032 2.6967C30 4.89339 30 8.42893 30 15.5C30 22.571 30 26.1066 27.8032 28.3032C25.6066 30.5 22.071 30.5 15 30.5C7.92893 30.5 4.39339 30.5 2.1967 28.3032C-2.38419e-07 26.1066 0 22.571 0 15.5ZM15 6.875C15.6213 6.875 16.125 7.37868 16.125 8V15.7839L18.7045 13.2045C19.1439 12.7652 19.8561 12.7652 20.2955 13.2045C20.7348 13.6439 20.7348 14.3561 20.2955 14.7955L15.7955 19.2955C15.5845 19.5065 15.2984 19.625 15 19.625C14.7016 19.625 14.4155 19.5065 14.2045 19.2955L9.70451 14.7955C9.26517 14.3561 9.26517 13.6439 9.70451 13.2045C10.1438 12.7652 10.8562 12.7652 11.2955 13.2045L13.875 15.7839V8C13.875 7.37868 14.3787 6.875 15 6.875ZM9 21.875C8.37868 21.875 7.875 22.3787 7.875 23C7.875 23.6213 8.37868 24.125 9 24.125H21C21.6213 24.125 22.125 23.6213 22.125 23C22.125 22.3787 21.6213 21.875 21 21.875H9Z" fill="#FDFDFD"/>
</svg>
