<svg width="20" height="20" viewBox="0 0 20 20" fill="none" xmlns="http://www.w3.org/2000/svg">
<path fill-rule="evenodd" clip-rule="evenodd" d="M10 20C15.5228 20 20 15.5228 20 10C20 4.47715 15.5228 0 10 0C4.47715 0 0 4.47715 0 10C0 15.5228 4.47715 20 10 20ZM6.1851 13.7508C6.2858 13.349 6.69315 13.1049 7.09494 13.2056C8.2252 13.4889 9.5232 13.4924 10.841 13.1393C12.1588 12.7862 13.2811 12.1342 14.1183 11.3237C14.4159 11.0356 14.8908 11.0433 15.1789 11.3409C15.467 11.6385 15.4593 12.1133 15.1617 12.4014C14.8142 12.7378 14.4297 13.0492 14.0128 13.3301L14.1708 13.652C14.5394 14.4031 14.2223 15.3106 13.4661 15.6685C12.7249 16.0194 11.8393 15.71 11.478 14.9738L11.2817 14.574L11.2292 14.5882C9.6739 15.005 8.1166 15.0081 6.73026 14.6606C6.32847 14.5599 6.0844 14.1526 6.1851 13.7508ZM13.4754 7.51572C13.6898 8.3159 13.4311 9.0805 12.8977 9.2234C12.3642 9.3664 11.7579 8.8336 11.5435 8.0334C11.3291 7.23316 11.5877 6.4686 12.1212 6.32565C12.6547 6.18271 13.2609 6.71552 13.4754 7.51572ZM7.10225 10.7764C7.63571 10.6335 7.89436 9.8689 7.67994 9.0687C7.46553 8.2685 6.85926 7.73569 6.32579 7.87863C5.79232 8.0216 5.53368 8.7861 5.74809 9.5863C5.9625 10.3865 6.56878 10.9194 7.10225 10.7764Z" fill="#D3D3D3"/>
</svg>
