<svg width="21" height="24" viewBox="0 0 21 24" fill="none" xmlns="http://www.w3.org/2000/svg">
<path d="M16.2132 0H4.63022C2.08434 0 0 2.08434 0 4.63021V21.5431C0 23.7019 1.54837 24.6101 3.43916 23.5679L9.29021 20.3074C9.91551 19.965 10.9279 19.965 11.5532 20.3074L17.4042 23.5679C19.295 24.6101 20.8434 23.7019 20.8434 21.5431V4.63021C20.8434 2.08434 18.7591 0 16.2132 0ZM13.3993 10.2281H11.5383V12.0892C11.5383 12.6996 11.0321 13.2058 10.4217 13.2058C9.81129 13.2058 9.30509 12.6996 9.30509 12.0892V10.2281H7.44408C6.83366 10.2281 6.32746 9.72195 6.32746 9.11153C6.32746 8.50112 6.83366 7.99492 7.44408 7.99492H9.30509V6.13392C9.30509 5.5235 9.81129 5.01731 10.4217 5.01731C11.0321 5.01731 11.5383 5.5235 11.5383 6.13392V7.99492H13.3993C14.0097 7.99492 14.5159 8.50112 14.5159 9.11153C14.5159 9.72195 14.0097 10.2281 13.3993 10.2281Z" fill="#F0F0F0"/>
</svg>
