<svg width="28" height="24" viewBox="0 0 28 24" fill="none" xmlns="http://www.w3.org/2000/svg">
<path fill-rule="evenodd" clip-rule="evenodd" d="M5.60944 2.42353C3.48204 3.39597 1.92352 5.70895 1.92352 8.4671C1.92352 11.2849 3.07663 13.4568 4.72966 15.3183C6.09206 16.8523 7.74131 18.1238 9.34974 19.3638C9.73176 19.6584 10.1115 19.9511 10.4845 20.2452C11.1591 20.777 11.7608 21.2436 12.3408 21.5825C12.921 21.9217 13.3882 22.0765 13.7852 22.0765C14.1822 22.0765 14.6494 21.9217 15.2296 21.5825C15.8096 21.2436 16.4113 20.777 17.086 20.2452C17.459 19.9511 17.8387 19.6584 18.2207 19.3638C19.8291 18.1238 21.4784 16.8523 22.8407 15.3183C24.4938 13.4568 25.6469 11.2849 25.6469 8.4671C25.6469 5.70895 24.0883 3.39597 21.9609 2.42353C19.8942 1.47881 17.1171 1.729 14.4782 4.47086C14.2969 4.65922 14.0467 4.76565 13.7852 4.76565C13.5237 4.76565 13.2735 4.65922 13.0922 4.47086C10.4532 1.729 7.6762 1.47881 5.60944 2.42353ZM13.7852 2.46794C10.8204 -0.184694 7.50038 -0.555766 4.80977 0.674118C1.96803 1.97308 0 4.9893 0 8.4671C0 11.8852 1.42404 14.4928 3.29142 16.5955C4.78682 18.2793 6.61718 19.6888 8.23371 20.9334C8.60016 21.2155 8.95561 21.4893 9.29369 21.7558C9.95054 22.2736 10.6557 22.8258 11.3703 23.2433C12.0847 23.6607 12.8999 24 13.7852 24C14.6705 24 15.4857 23.6607 16.2001 23.2433C16.9148 22.8258 17.6198 22.2736 18.2767 21.7558C18.6148 21.4893 18.9702 21.2155 19.3367 20.9334C20.9532 19.6888 22.7835 18.2793 24.279 16.5955C26.1464 14.4928 27.5704 11.8852 27.5704 8.4671C27.5704 4.9893 25.6024 1.97308 22.7606 0.674118C20.07 -0.555766 16.7501 -0.184694 13.7852 2.46794Z" fill="#F0F0F0"/>
</svg>
