<svg width="19" height="21" viewBox="0 0 19 21" fill="none" xmlns="http://www.w3.org/2000/svg">
<path d="M6.63478 19.2733V16.2156C6.63478 15.4351 7.27217 14.8023 8.05844 14.8023H10.9326C11.3102 14.8023 11.6723 14.9512 11.9393 15.2163C12.2063 15.4813 12.3563 15.8408 12.3563 16.2156V19.2733C12.3539 19.5978 12.4821 19.9099 12.7124 20.1402C12.9427 20.3705 13.2561 20.5 13.5829 20.5H15.5438C16.4596 20.5023 17.3388 20.1428 17.9872 19.5008C18.6356 18.8588 19 17.987 19 17.0778V8.36686C19 7.63246 18.6721 6.93584 18.1046 6.46467L11.434 1.17587C10.2737 0.248562 8.61111 0.278502 7.48539 1.24698L0.967012 6.46467C0.372741 6.92195 0.0175523 7.62064 0 8.36686V17.0689C0 18.9639 1.54738 20.5 3.45617 20.5H5.37229C6.05123 20.5 6.603 19.9562 6.60792 19.2822L6.63478 19.2733Z" fill="#1715A7"/>
</svg>
