<svg width="20" height="20" viewBox="0 0 20 20" fill="none" xmlns="http://www.w3.org/2000/svg">
<path fill-rule="evenodd" clip-rule="evenodd" d="M6.67242 5.54199H13.3277C16.7025 5.54199 18.3899 5.54199 19.3378 6.52883C20.2856 7.51566 20.0626 9.04032 19.6166 12.0895L19.1936 14.9812C18.8438 17.3724 18.669 18.568 17.7718 19.284C16.8746 20 15.5513 20 12.9047 20H7.0954C4.44883 20 3.12555 20 2.22835 19.284C1.33116 18.568 1.15627 17.3724 0.806484 14.9812L0.383512 12.0895C-0.0625198 9.04032 -0.285531 7.51566 0.662324 6.52883C1.61018 5.54199 3.2976 5.54199 6.67242 5.54199ZM6.00003 16.0002C6.00003 15.586 6.37313 15.2502 6.83337 15.2502H13.1668C13.627 15.2502 14.0001 15.586 14.0001 16.0002C14.0001 16.4144 13.627 16.7502 13.1668 16.7502H6.83337C6.37313 16.7502 6.00003 16.4144 6.00003 16.0002Z" fill="#1715A7"/>
<g opacity="0.4">
<path d="M6.51007 7.2929e-06H13.4902C13.7227 -5.27074e-05 13.901 -9.26503e-05 14.0568 0.0151474C15.1646 0.123518 16.0713 0.789581 16.4559 1.68679H3.54443C3.92896 0.789581 4.83571 0.123518 5.94354 0.0151474C6.09935 -9.26503e-05 6.27759 -5.27074e-05 6.51007 7.2929e-06Z" fill="#1715A7"/>
</g>
<g opacity="0.7">
<path d="M4.31071 2.72266C2.92008 2.72266 1.77981 3.56241 1.39927 4.67646C1.39134 4.69968 1.38374 4.72303 1.37646 4.74648C1.77462 4.62591 2.18899 4.54714 2.60846 4.49337C3.68884 4.35485 5.05418 4.35492 6.64022 4.35501H6.75866H13.5324C15.1184 4.35492 16.4838 4.35485 17.5641 4.49337C17.9836 4.54714 18.398 4.62591 18.7961 4.74648C18.7888 4.72303 18.7812 4.69968 18.7733 4.67646C18.3928 3.56241 17.2525 2.72266 15.8619 2.72266H4.31071Z" fill="#1715A7"/>
</g>
</svg>
