<svg width="21" height="21" viewBox="0 0 21 21" fill="none" xmlns="http://www.w3.org/2000/svg">
<path fill-rule="evenodd" clip-rule="evenodd" d="M7.17236 6.04199H13.8276C17.2024 6.04199 18.8898 6.04199 19.8377 7.02883C20.7855 8.01566 20.5625 9.54032 20.1165 12.5895L19.6935 15.4812C19.3437 17.8724 19.1689 19.068 18.2717 19.784C17.3745 20.5 16.0512 20.5 13.4046 20.5H7.59534C4.94877 20.5 3.62549 20.5 2.72829 19.784C1.8311 19.068 1.65621 17.8724 1.30642 15.4812L0.883451 12.5895C0.437419 9.54032 0.214408 8.01566 1.16226 7.02883C2.11012 6.04199 3.79754 6.04199 7.17236 6.04199ZM6.49997 16.5002C6.49997 16.086 6.87307 15.7502 7.3333 15.7502H13.6667C14.1269 15.7502 14.5 16.086 14.5 16.5002C14.5 16.9144 14.1269 17.2502 13.6667 17.2502H7.3333C6.87307 17.2502 6.49997 16.9144 6.49997 16.5002Z" fill="white"/>
<g opacity="0.4">
<path d="M7.01001 0.500007H13.9901C14.2226 0.499947 14.4009 0.499907 14.5567 0.515147C15.6645 0.623518 16.5712 1.28958 16.9558 2.18679H4.04437C4.42889 1.28958 5.33565 0.623518 6.44348 0.515147C6.59929 0.499907 6.77753 0.499947 7.01001 0.500007Z" fill="white"/>
</g>
<g opacity="0.7">
<path d="M4.81065 3.22266C3.42002 3.22266 2.27975 4.06241 1.89921 5.17646C1.89128 5.19968 1.88368 5.22303 1.8764 5.24648C2.27456 5.12591 2.68893 5.04714 3.1084 4.99337C4.18878 4.85485 5.55412 4.85492 7.14016 4.85501H7.2586H14.0323C15.6183 4.85492 16.9837 4.85485 18.064 4.99337C18.4835 5.04714 18.8979 5.12591 19.296 5.24648C19.2887 5.22303 19.2811 5.19968 19.2732 5.17646C18.8927 4.06241 17.7524 3.22266 16.3618 3.22266H4.81065Z" fill="white"/>
</g>
</svg>
