<svg width="5" height="25" viewBox="0 0 5 25" fill="none" xmlns="http://www.w3.org/2000/svg">
<path d="M1.34724e-06 12.5C1.34724e-06 12.0055 0.146624 11.5222 0.421328 11.1111C0.696031 10.7 1.08648 10.3795 1.54329 10.1903C2.00011 10.0011 2.50278 9.95157 2.98773 10.048C3.47268 10.1445 3.91814 10.3826 4.26777 10.7322C4.6174 11.0819 4.8555 11.5273 4.95197 12.0123C5.04843 12.4972 4.99892 12.9999 4.8097 13.4567C4.62048 13.9135 4.30005 14.304 3.88893 14.5787C3.4778 14.8534 2.99446 15 2.5 15C1.83696 15 1.20108 14.7366 0.732235 14.2678C0.263394 13.7989 1.34724e-06 13.163 1.34724e-06 12.5ZM5 22.5C5 22.0055 4.85338 21.5222 4.57868 21.1111C4.30397 20.7 3.91353 20.3795 3.45671 20.1903C2.99989 20.0011 2.49723 19.9516 2.01228 20.048C1.52732 20.1445 1.08187 20.3826 0.732235 20.7322C0.382604 21.0819 0.144501 21.5273 0.0480379 22.0123C-0.0484251 22.4972 0.0010832 22.9999 0.190302 23.4567C0.379521 23.9135 0.699953 24.304 1.11108 24.5787C1.5222 24.8534 2.00555 25 2.5 25C3.16304 25 3.79893 24.7366 4.26777 24.2678C4.73661 23.7989 5 23.163 5 22.5ZM1.34724e-06 2.5C1.34724e-06 2.99445 0.146624 3.4778 0.421328 3.88892C0.696031 4.30005 1.08648 4.62048 1.54329 4.8097C2.00011 4.99892 2.50278 5.04842 2.98773 4.95196C3.47268 4.8555 3.91814 4.6174 4.26777 4.26777C4.6174 3.91813 4.8555 3.47268 4.95197 2.98772C5.04843 2.50277 4.99892 2.0001 4.8097 1.54329C4.62048 1.08647 4.30005 0.696028 3.88893 0.421324C3.4778 0.14662 2.99446 -1.90735e-06 2.5 -1.90735e-06C1.83696 -1.90735e-06 1.20108 0.26339 0.732235 0.732231C0.263394 1.20107 1.34724e-06 1.83696 1.34724e-06 2.5Z" fill="#F0F0F0"/>
</svg>
