<svg width="13" height="15" viewBox="0 0 13 15" fill="none" xmlns="http://www.w3.org/2000/svg">
<path d="M4.84739 12.9209C5.22232 12.8416 7.50696 12.8416 7.88189 12.9209C8.20241 12.995 8.54902 13.1679 8.54902 13.5456C8.53039 13.9052 8.31944 14.224 8.02799 14.4264C7.65008 14.721 7.20656 14.9076 6.74293 14.9748C6.48651 15.008 6.23457 15.0088 5.9871 14.9748C5.52271 14.9076 5.0792 14.721 4.70203 14.4256C4.40984 14.224 4.19889 13.9052 4.18026 13.5456C4.18026 13.1679 4.52687 12.995 4.84739 12.9209ZM6.40892 0C7.96903 0 9.56269 0.740264 10.5093 1.9685C11.1235 2.75937 11.4053 3.54949 11.4053 4.77773V5.09725C11.4053 6.0392 11.6543 6.59439 12.2021 7.23419C12.6173 7.70555 12.75 8.3106 12.75 8.96702C12.75 9.62268 12.5346 10.2451 12.103 10.7504C11.538 11.3563 10.7412 11.743 9.92793 11.8102C8.74946 11.9107 7.57024 11.9953 6.37537 11.9953C5.17976 11.9953 4.00129 11.9447 2.82282 11.8102C2.00884 11.743 1.21201 11.3563 0.647749 10.7504C0.216165 10.2451 0 9.62268 0 8.96702C0 8.3106 0.133426 7.70555 0.547866 7.23419C1.11288 6.59439 1.34544 6.0392 1.34544 5.09725V4.77773C1.34544 3.51625 1.66 2.69139 2.30775 1.8839C3.2708 0.706272 4.81451 0 6.34183 0H6.40892Z" fill="white"/>
</svg>
