<svg width="25" height="25" viewBox="0 0 25 25" fill="none" xmlns="http://www.w3.org/2000/svg">
<path d="M17.1801 15.429C18.3906 13.7772 18.9327 11.7292 18.6981 9.69486C18.4635 7.66048 17.4694 5.7897 15.9146 4.4568C14.3599 3.1239 12.3593 2.42718 10.3129 2.50603C8.26656 2.58488 6.32544 3.43348 4.87789 4.88206C3.43035 6.33065 2.58313 8.27238 2.50575 10.3188C2.42836 12.3652 3.12651 14.3654 4.46052 15.9191C5.79453 17.4729 7.66602 18.4657 9.70058 18.6988C11.7351 18.932 13.7827 18.3884 15.4336 17.1767H15.4324C15.4699 17.2267 15.5099 17.2742 15.5549 17.3205L20.3679 22.1335C20.6023 22.368 20.9203 22.4999 21.2519 22.5C21.5835 22.5001 21.9016 22.3685 22.1362 22.1341C22.3708 21.8997 22.5026 21.5817 22.5028 21.2501C22.5029 20.9184 22.3712 20.6004 22.1368 20.3658L17.3238 15.5528C17.2791 15.5075 17.2311 15.467 17.1801 15.429ZM17.5026 10.6235C17.5026 11.5265 17.3248 12.4205 16.9792 13.2547C16.6337 14.0889 16.1272 14.8469 15.4888 15.4854C14.8503 16.1239 14.0923 16.6303 13.2581 16.9759C12.4239 17.3214 11.5298 17.4992 10.6269 17.4992C9.72397 17.4992 8.82988 17.3214 7.99568 16.9759C7.16148 16.6303 6.40351 16.1239 5.76504 15.4854C5.12657 14.8469 4.62011 14.0889 4.27457 13.2547C3.92904 12.4205 3.75119 11.5265 3.75119 10.6235C3.75119 8.79997 4.47559 7.05111 5.76504 5.76166C7.05448 4.47222 8.80335 3.74781 10.6269 3.74781C12.4505 3.74781 14.1993 4.47222 15.4888 5.76166C16.7782 7.05111 17.5026 8.79997 17.5026 10.6235Z" fill="white"/>
</svg>
