<svg width="20" height="20" viewBox="0 0 20 20" fill="none" xmlns="http://www.w3.org/2000/svg">
<path d="M14.6801 12.929C15.8906 11.2772 16.4328 9.22925 16.1982 7.19486C15.9635 5.16048 14.9694 3.2897 13.4147 1.9568C11.86 0.6239 9.85932 -0.0728189 7.81297 0.00603073C5.76662 0.0848803 3.8255 0.933483 2.37795 2.38206C0.930408 3.83065 0.083194 5.77238 0.00580877 7.81878C-0.0715765 9.86519 0.626574 11.8654 1.96058 13.4191C3.29459 14.9729 5.16609 15.9657 7.20064 16.1988C9.23519 16.432 11.2828 15.8884 12.9337 14.6767H12.9325C12.97 14.7267 13.01 14.7742 13.055 14.8205L17.868 19.6335C18.1024 19.868 18.4204 19.9999 18.752 20C19.0836 20.0001 19.4017 19.8685 19.6363 19.6341C19.8708 19.3997 20.0027 19.0817 20.0028 18.7501C20.0029 18.4184 19.8713 18.1004 19.6369 17.8658L14.8239 13.0528C14.7792 13.0075 14.7311 12.967 14.6801 12.929ZM15.0027 8.12352C15.0027 9.02645 14.8248 9.92054 14.4793 10.7547C14.1338 11.5889 13.6273 12.3469 12.9888 12.9854C12.3504 13.6239 11.5924 14.1303 10.7582 14.4759C9.92398 14.8214 9.02989 14.9992 8.12696 14.9992C7.22403 14.9992 6.32994 14.8214 5.49574 14.4759C4.66154 14.1303 3.90357 13.6239 3.2651 12.9854C2.62663 12.3469 2.12017 11.5889 1.77463 10.7547C1.4291 9.92054 1.25125 9.02645 1.25125 8.12352C1.25125 6.29997 1.97565 4.55111 3.2651 3.26166C4.55455 1.97222 6.30341 1.24781 8.12696 1.24781C9.95051 1.24781 11.6994 1.97222 12.9888 3.26166C14.2783 4.55111 15.0027 6.29997 15.0027 8.12352Z" fill="#1715A7"/>
</svg>
