<svg width="26" height="25" viewBox="0 0 26 25" fill="none" xmlns="http://www.w3.org/2000/svg">
<path d="M16.7633 2.2C16.7633 1.53726 17.3006 1 17.9633 1C21.9398 1 25.1633 4.22355 25.1633 8.2V17.8C25.1633 21.7764 21.9398 25 17.9633 25H8.36333C4.38688 25 1.16333 21.7764 1.16333 17.8C1.16333 17.1372 1.70059 16.6 2.36333 16.6C3.02607 16.6 3.56333 17.1372 3.56333 17.8C3.56333 20.4509 5.71236 22.6 8.36333 22.6H17.9633C20.6143 22.6 22.7633 20.4509 22.7633 17.8V8.2C22.7633 5.54903 20.6143 3.4 17.9633 3.4C17.3006 3.4 16.7633 2.86274 16.7633 2.2Z" fill="#F0F0F0"/>
<path d="M3.21122 13.9414L2.55651 13.3295M3.21122 13.9414C3.68066 13.4391 4.31071 12.7918 4.96795 12.1929C5.63749 11.5829 6.28657 11.0686 6.79895 10.7919C7.23848 10.5545 8.06377 10.4084 8.8438 10.4182C9.11283 10.4215 9.33964 10.4433 9.51034 10.4737C9.51572 11.2599 9.50863 12.6963 9.505 13.3152C9.49977 14.2119 10.5698 14.6776 11.2227 14.0654L16.6902 8.93963C17.1047 8.55112 17.1218 7.8989 16.7285 7.48912L11.2591 1.7919C10.6228 1.12909 9.50326 1.5795 9.50326 2.49828V4.80152C9.01498 4.76486 8.39458 4.73725 7.73851 4.75611C6.60082 4.78881 5.13458 4.96309 4.1299 5.66077C4.00481 5.74763 3.88519 5.84247 3.77157 5.94137C1.75459 7.69711 1.30207 10.4895 1.03414 12.7222L1.01017 12.922C0.860802 14.1666 2.39375 14.8161 3.21122 13.9414ZM9.99167 12.7522L10.4057 13.1938M9.99167 12.7522V12.7522Z" stroke="#F0F0F0" stroke-width="2" stroke-linecap="round"/>
</svg>
