<svg width="26" height="26" viewBox="0 0 26 26" fill="none" xmlns="http://www.w3.org/2000/svg">
<path d="M15.6667 11.6667L19.6667 9.66667V16.3333L15.6667 14.3333M25 13C25 19.6275 19.6275 25 13 25C6.37259 25 1 19.6275 1 13C1 6.37259 6.37259 1 13 1C19.6275 1 25 6.37259 25 13ZM7.66667 17H14.3333C15.0697 17 15.6667 16.4031 15.6667 15.6667V10.3333C15.6667 9.59696 15.0697 9 14.3333 9H7.66667C6.93029 9 6.33333 9.59696 6.33333 10.3333V15.6667C6.33333 16.4031 6.93029 17 7.66667 17Z" stroke="#BBBBBB" stroke-width="2" stroke-linecap="round" stroke-linejoin="round"/>
</svg>
