<svg width="21" height="21" viewBox="0 0 21 21" fill="none" xmlns="http://www.w3.org/2000/svg">
<path d="M0.5 11.2875C0.5 8.87584 2.37791 6.89627 4.73116 6.78512L4.94 6.7802H9.73V12.8848C9.73 13.3223 10.07 13.6683 10.5 13.6683C10.885 13.6683 11.2112 13.3776 11.2629 12.9922L11.27 12.8848V6.7802H16.05C18.43 6.7802 20.3853 8.69086 20.4951 11.0945L20.5 11.3078V16.2628C20.5 18.6843 18.6221 20.6641 16.2688 20.7753L16.06 20.7802H4.95C2.56029 20.7802 0.614098 18.8599 0.504838 16.4651L0.5 16.2526V11.2875ZM7.0502 4.24C6.76838 3.96727 6.74276 3.53752 6.96583 3.23624L7.0402 3.15L9.9502 0.23C10.1002 0.08 10.2902 0 10.5002 0C10.6602 0 10.8202 0.0512 10.9495 0.14848L11.0402 0.23L13.9502 3.15C14.1002 3.3 14.1802 3.5 14.1802 3.69C14.1802 3.89 14.1002 4.09 13.9502 4.24C13.6775 4.51273 13.2477 4.53752 12.9464 4.31438L12.8602 4.24L11.2702 2.64L11.27 6.7802H9.73L9.7302 2.64L8.1402 4.24C7.8402 4.54 7.3502 4.54 7.0502 4.24Z" fill="#E4E4E4"/>
</svg>
