<svg width="45" height="45" viewBox="0 0 45 45" fill="none" xmlns="http://www.w3.org/2000/svg">
<rect width="45" height="45" rx="22.5" fill="url(#paint0_linear_955_410)"/>
<path d="M12.5 22.2875C12.5 19.8758 14.3779 17.8963 16.7312 17.7851L16.94 17.7802H21.73V23.8848C21.73 24.3223 22.07 24.6683 22.5 24.6683C22.885 24.6683 23.2112 24.3776 23.2629 23.9922L23.27 23.8848V17.7802H28.05C30.43 17.7802 32.3853 19.6909 32.4951 22.0945L32.5 22.3078V27.2628C32.5 29.6843 30.6221 31.6641 28.2688 31.7753L28.06 31.7802H16.95C14.5603 31.7802 12.6141 29.8599 12.5048 27.4651L12.5 27.2526V22.2875ZM19.0502 15.24C18.7684 14.9673 18.7428 14.5375 18.9658 14.2362L19.0402 14.15L21.9502 11.23C22.1002 11.08 22.2902 11 22.5002 11C22.6602 11 22.8202 11.0512 22.9495 11.1485L23.0402 11.23L25.9502 14.15C26.1002 14.3 26.1802 14.5 26.1802 14.69C26.1802 14.89 26.1002 15.09 25.9502 15.24C25.6775 15.5127 25.2477 15.5375 24.9464 15.3144L24.8602 15.24L23.2702 13.64L23.27 17.7802H21.73L21.7302 13.64L20.1402 15.24C19.8402 15.54 19.3502 15.54 19.0502 15.24Z" fill="#F7FAFF"/>
<defs>
<linearGradient id="paint0_linear_955_410" x1="22.5" y1="0" x2="22.5" y2="45" gradientUnits="userSpaceOnUse">
<stop stop-color="#1A19B8"/>
<stop offset="1" stop-color="#03023C"/>
</linearGradient>
</defs>
</svg>
