<svg width="25" height="26" viewBox="0 0 25 26" fill="none" xmlns="http://www.w3.org/2000/svg">
<path d="M12.4875 0.5C5.5875 0.5 0 6.1 0 13C0 19.9 5.5875 25.5 12.4875 25.5C19.4 25.5 25 19.9 25 13C25 6.1 19.4 0.5 12.4875 0.5ZM12.5 23C6.975 23 2.5 18.525 2.5 13C2.5 7.475 6.975 3 12.5 3C18.025 3 22.5 7.475 22.5 13C22.5 18.525 18.025 23 12.5 23ZM12.225 6.75H12.15C11.65 6.75 11.25 7.15 11.25 7.65V13.55C11.25 13.9875 11.475 14.4 11.8625 14.625L17.05 17.7375C17.475 17.9875 18.025 17.8625 18.275 17.4375C18.5375 17.0125 18.4 16.45 17.9625 16.2L13.125 13.325V7.65C13.125 7.15 12.725 6.75 12.225 6.75Z" fill="white"/>
</svg>
