<svg width="34" height="30" viewBox="0 0 34 30" fill="none" xmlns="http://www.w3.org/2000/svg">
<path d="M20.9168 0C22.5335 0.0166482 23.8502 0.849057 24.6168 2.34739C24.8147 2.74279 25.0908 3.32027 25.3799 3.92946L25.7288 4.66607L25.9002 5.02775L26.0668 5.39401C26.1335 5.51054 26.2502 5.59378 26.4002 5.59378C30.4002 5.59378 33.6668 8.85682 33.6668 12.8524V22.7414C33.6668 26.737 30.4002 30 26.4002 30H7.60016C3.5835 30 0.333496 26.737 0.333496 22.7414V12.8524C0.333496 8.85682 3.5835 5.59378 7.60016 5.59378C7.7335 5.59378 7.86683 5.52719 7.91683 5.39401L8.01683 5.19423C8.4835 4.21199 9.05016 3.01332 9.3835 2.34739C10.1502 0.849057 11.4502 0.0166482 13.0668 0H20.9168ZM17.0002 10.6715C15.2502 10.6715 13.6002 11.3541 12.3502 12.6027C11.1168 13.8513 10.4335 15.4828 10.4502 17.2142C10.4502 18.9623 11.1335 20.5938 12.3668 21.8424C13.6168 23.0744 15.2502 23.7569 17.0002 23.7569C18.8002 23.7569 20.4335 23.0244 21.6168 21.8424C22.8002 20.6604 23.5335 19.0289 23.5502 17.2142C23.5502 15.4828 22.8668 13.8346 21.6335 12.586C20.4002 11.3541 18.7502 10.6715 17.0002 10.6715ZM17.0002 13.1687C18.0835 13.1687 19.1002 13.5849 19.8668 14.3507C20.6335 15.1165 21.0502 16.1321 21.0502 17.2142C21.0335 19.4451 19.2335 21.2597 17.0002 21.2597C15.9168 21.2597 14.9002 20.8435 14.1335 20.0777C13.3668 19.3119 12.9502 18.2963 12.9502 17.2142V17.1976C12.9335 16.1487 13.3502 15.1332 14.1168 14.3674C14.9002 13.5849 15.9168 13.1687 17.0002 13.1687ZM26.3502 10.2719C25.5168 10.2719 24.8502 10.9545 24.8502 11.7869C24.8502 12.6193 25.5168 13.2852 26.3502 13.2852C27.1835 13.2852 27.8668 12.6193 27.8668 11.7869C27.8668 10.9545 27.1835 10.2719 26.3502 10.2719Z" fill="#DDDDDB"/>
</svg>
