<svg width="34" height="34" viewBox="0 0 34 34" fill="none" xmlns="http://www.w3.org/2000/svg">
<path d="M17.0002 0.333252C26.1861 0.333252 33.6668 7.81034 33.6668 17.0096C33.6668 26.1895 26.1861 33.6666 17.0002 33.6666C7.81419 33.6666 0.333496 26.1895 0.333496 17.0096C0.333496 7.81034 7.81419 0.333252 17.0002 0.333252ZM15.1018 10.3831C14.7479 10.3831 14.4101 10.4635 14.0883 10.6243C13.6861 10.8494 13.3644 11.2032 13.1874 11.6212C13.0748 11.9107 12.8978 12.779 12.8978 12.7951C12.7209 13.7438 12.6244 15.2874 12.6244 16.9919C12.6244 18.6175 12.7209 20.0953 12.8657 21.0601C12.8818 21.0761 13.0587 22.1535 13.2518 22.5233C13.6057 23.1987 14.2975 23.6167 15.0375 23.6167H15.1018C15.5845 23.6007 16.598 23.1826 16.598 23.1665C18.3033 22.459 21.6655 20.2561 23.0169 18.7928L23.1134 18.6963C23.2904 18.5195 23.5156 18.2461 23.5639 18.1818C23.8213 17.8441 23.95 17.426 23.95 17.0096C23.95 16.5416 23.8052 16.1075 23.5317 15.7537C23.4673 15.6894 23.226 15.4161 23.0008 15.1909C21.6816 13.7759 18.2389 11.4604 16.4371 10.7529C16.1636 10.642 15.4718 10.3992 15.1018 10.3831Z" fill="#DDDDDB"/>
</svg>
